<?xml version="1.0" standalone="no"?>
<!DOCTYPE svg PUBLIC "-//W3C//DTD SVG 20010904//EN"
 "http://www.w3.org/TR/2001/REC-SVG-20010904/DTD/svg10.dtd">
<svg version="1.0" xmlns="http://www.w3.org/2000/svg"
 width="204.000000pt" height="192.000000pt" viewBox="0 0 204.000000 192.000000"
 preserveAspectRatio="xMidYMid meet">

<g transform="translate(0.000000,192.000000) scale(0.100000,-0.100000)"
fill="#000000" stroke="none">
<path d="M510 955 l0 -905 170 0 170 0 -2 450 c-2 248 -1 450 2 450 3 0 21
-42 42 -93 20 -50 100 -253 178 -449 l143 -358 158 0 159 0 0 905 0 905 -170
0 -171 0 3 -445 c2 -244 0 -441 -4 -437 -6 7 -35 79 -143 362 -64 167 -159
418 -179 473 l-18 47 -169 0 -169 0 0 -905z"/>
</g>
</svg>
